<svg width="1040" height="68" viewBox="0 0 1040 68" fill="none" xmlns="http://www.w3.org/2000/svg">
<path d="M66.4214 27.0186C65.2229 25.8371 63.5568 25.3045 61.8852 25.5623C56.4763 26.3783 51.501 28.5231 47.2425 31.6483C46.6985 23.7716 43.4884 15.5323 38.4195 9.1913C36.2804 6.51664 31.7187 6.51664 29.5795 9.1913C24.5929 15.4303 21.3232 23.8396 20.7594 31.6455C16.4357 28.4835 11.3725 26.333 5.86452 25.5538C4.28352 25.3356 2.71952 25.8541 1.56352 26.996C0.399022 28.1406 -0.150645 29.7103 0.0505218 31.2998C2.29169 48.994 16.8862 62.3361 33.9967 62.3361C50.9967 62.3361 65.594 49.0931 67.9485 31.5293C68.1752 29.8406 67.617 28.1973 66.4185 27.0186H66.4214ZM31.7924 10.9565C32.8492 9.6333 35.1499 9.6333 36.2067 10.9565C41.3719 17.4193 44.463 25.9845 44.4914 33.8895C39.5784 38.335 35.8922 44.1971 34.0052 50.796C32.1182 44.183 28.432 38.318 23.5105 33.8781C23.5417 26.0893 26.7094 17.3173 31.7952 10.9565H31.7924ZM2.86402 30.94C2.77336 30.2345 3.00852 29.512 3.55252 29.0105C4.28635 28.3333 5.36585 28.3418 5.46785 28.356C20.4675 30.481 31.8887 43.7211 32.5545 59.466C17.4982 58.7378 4.86435 46.7188 2.86402 30.94ZM65.1435 31.1525C63.044 46.8123 50.4102 58.7406 35.4474 59.466C36.1104 43.8401 47.4352 30.6028 62.3045 28.3645C62.4377 28.3446 63.7495 28.1973 64.4323 29.0388C64.9253 29.6451 65.2483 30.3563 65.1407 31.1525H65.1435Z" fill="url(#paint0_radial_417_40)"/>
<path d="M1038.42 27.0186C1037.22 25.8371 1035.56 25.3045 1033.89 25.5623C1028.48 26.3783 1023.5 28.5231 1019.24 31.6483C1018.7 23.7716 1015.49 15.5323 1010.42 9.1913C1008.28 6.51664 1003.72 6.51664 1001.58 9.1913C996.593 15.4303 993.323 23.8396 992.759 31.6455C988.436 28.4835 983.373 26.333 977.865 25.5538C976.284 25.3356 974.72 25.8541 973.564 26.996C972.399 28.1406 971.849 29.7103 972.051 31.2998C974.292 48.994 988.886 62.3361 1006 62.3361C1023 62.3361 1037.59 49.0931 1039.95 31.5293C1040.18 29.8406 1039.62 28.1973 1038.42 27.0186H1038.42ZM1003.79 10.9565C1004.85 9.6333 1007.15 9.6333 1008.21 10.9565C1013.37 17.4193 1016.46 25.9845 1016.49 33.8895C1011.58 38.335 1007.89 44.1971 1006.01 50.796C1004.12 44.183 1000.43 38.318 995.511 33.8781C995.542 26.0893 998.709 17.3173 1003.8 10.9565H1003.79ZM974.864 30.94C974.773 30.2345 975.009 29.512 975.553 29.0105C976.286 28.3333 977.366 28.3418 977.468 28.356C992.468 30.481 1003.89 43.7211 1004.55 59.466C989.498 58.7378 976.864 46.7188 974.864 30.94ZM1037.14 31.1525C1035.04 46.8123 1022.41 58.7406 1007.45 59.466C1008.11 43.8401 1019.44 30.6028 1034.3 28.3645C1034.44 28.3446 1035.75 28.1973 1036.43 29.0388C1036.93 29.6451 1037.25 30.3563 1037.14 31.1525H1037.14Z" fill="url(#paint1_radial_417_40)"/>
<path d="M930.421 27.0186C929.223 25.8371 927.557 25.3045 925.885 25.5623C920.476 26.3783 915.501 28.5231 911.243 31.6483C910.699 23.7716 907.488 15.5323 902.42 9.1913C900.28 6.51664 895.719 6.51664 893.58 9.1913C888.593 15.4303 885.323 23.8396 884.759 31.6455C880.436 28.4835 875.373 26.333 869.865 25.5538C868.284 25.3356 866.72 25.8541 865.564 26.996C864.399 28.1406 863.849 29.7103 864.051 31.2998C866.292 48.994 880.886 62.3361 897.997 62.3361C914.997 62.3361 929.594 49.0931 931.949 31.5293C932.175 29.8406 931.617 28.1973 930.419 27.0186H930.421ZM895.792 10.9565C896.849 9.6333 899.15 9.6333 900.207 10.9565C905.372 17.4193 908.463 25.9845 908.491 33.8895C903.578 38.335 899.892 44.1971 898.005 50.796C896.118 44.183 892.432 38.318 887.511 33.8781C887.542 26.0893 890.709 17.3173 895.795 10.9565H895.792ZM866.864 30.94C866.773 30.2345 867.009 29.512 867.553 29.0105C868.286 28.3333 869.366 28.3418 869.468 28.356C884.468 30.481 895.889 43.7211 896.555 59.466C881.498 58.7378 868.864 46.7188 866.864 30.94ZM929.144 31.1525C927.044 46.8123 914.41 58.7406 899.447 59.466C900.11 43.8401 911.435 30.6028 926.305 28.3645C926.438 28.3446 927.75 28.1973 928.432 29.0388C928.925 29.6451 929.248 30.3563 929.141 31.1525H929.144Z" fill="url(#paint2_radial_417_40)"/>
<path d="M714.421 27.0186C713.223 25.8371 711.557 25.3045 709.885 25.5623C704.476 26.3783 699.501 28.5231 695.243 31.6483C694.699 23.7716 691.488 15.5323 686.42 9.1913C684.28 6.51664 679.719 6.51664 677.58 9.1913C672.593 15.4303 669.323 23.8396 668.759 31.6455C664.436 28.4835 659.373 26.333 653.865 25.5538C652.284 25.3356 650.72 25.8541 649.564 26.996C648.399 28.1406 647.849 29.7103 648.051 31.2998C650.292 48.994 664.886 62.3361 681.997 62.3361C698.997 62.3361 713.594 49.0931 715.949 31.5293C716.175 29.8406 715.617 28.1973 714.419 27.0186H714.421ZM679.792 10.9565C680.849 9.6333 683.15 9.6333 684.207 10.9565C689.372 17.4193 692.463 25.9845 692.491 33.8895C687.578 38.335 683.892 44.1971 682.005 50.796C680.118 44.183 676.432 38.318 671.511 33.8781C671.542 26.0893 674.709 17.3173 679.795 10.9565H679.792ZM650.864 30.94C650.773 30.2345 651.009 29.512 651.553 29.0105C652.286 28.3333 653.366 28.3418 653.468 28.356C668.468 30.481 679.889 43.7211 680.555 59.466C665.498 58.7378 652.864 46.7188 650.864 30.94ZM713.144 31.1525C711.044 46.8123 698.41 58.7406 683.447 59.466C684.11 43.8401 695.435 30.6028 710.305 28.3645C710.438 28.3446 711.75 28.1973 712.432 29.0388C712.925 29.6451 713.248 30.3563 713.141 31.1525H713.144Z" fill="url(#paint3_radial_417_40)"/>
<path d="M822.421 27.0186C821.223 25.8371 819.557 25.3045 817.885 25.5623C812.476 26.3783 807.501 28.5231 803.243 31.6483C802.699 23.7716 799.488 15.5323 794.42 9.1913C792.28 6.51664 787.719 6.51664 785.58 9.1913C780.593 15.4303 777.323 23.8396 776.759 31.6455C772.436 28.4835 767.373 26.333 761.865 25.5538C760.284 25.3356 758.72 25.8541 757.564 26.996C756.399 28.1406 755.849 29.7103 756.051 31.2998C758.292 48.994 772.886 62.3361 789.997 62.3361C806.997 62.3361 821.594 49.0931 823.949 31.5293C824.175 29.8406 823.617 28.1973 822.419 27.0186H822.421ZM787.792 10.9565C788.849 9.6333 791.15 9.6333 792.207 10.9565C797.372 17.4193 800.463 25.9845 800.491 33.8895C795.578 38.335 791.892 44.1971 790.005 50.796C788.118 44.183 784.432 38.318 779.511 33.8781C779.542 26.0893 782.709 17.3173 787.795 10.9565H787.792ZM758.864 30.94C758.773 30.2345 759.009 29.512 759.553 29.0105C760.286 28.3333 761.366 28.3418 761.468 28.356C776.468 30.481 787.889 43.7211 788.555 59.466C773.498 58.7378 760.864 46.7188 758.864 30.94ZM821.144 31.1525C819.044 46.8123 806.41 58.7406 791.447 59.466C792.11 43.8401 803.435 30.6028 818.305 28.3645C818.438 28.3446 819.75 28.1973 820.432 29.0388C820.925 29.6451 821.248 30.3563 821.141 31.1525H821.144Z" fill="url(#paint4_radial_417_40)"/>
<path d="M606.421 27.0186C605.223 25.8371 603.557 25.3045 601.885 25.5623C596.476 26.3783 591.501 28.5231 587.243 31.6483C586.699 23.7716 583.488 15.5323 578.42 9.1913C576.28 6.51664 571.719 6.51664 569.58 9.1913C564.593 15.4303 561.323 23.8396 560.759 31.6455C556.436 28.4835 551.373 26.333 545.865 25.5538C544.284 25.3356 542.72 25.8541 541.564 26.996C540.399 28.1406 539.849 29.7103 540.051 31.2998C542.292 48.994 556.886 62.3361 573.997 62.3361C590.997 62.3361 605.594 49.0931 607.949 31.5293C608.175 29.8406 607.617 28.1973 606.419 27.0186H606.421ZM571.792 10.9565C572.849 9.6333 575.15 9.6333 576.207 10.9565C581.372 17.4193 584.463 25.9845 584.491 33.8895C579.578 38.335 575.892 44.1971 574.005 50.796C572.118 44.183 568.432 38.318 563.511 33.8781C563.542 26.0893 566.709 17.3173 571.795 10.9565H571.792ZM542.864 30.94C542.773 30.2345 543.009 29.512 543.553 29.0105C544.286 28.3333 545.366 28.3418 545.468 28.356C560.468 30.481 571.889 43.7211 572.555 59.466C557.498 58.7378 544.864 46.7188 542.864 30.94ZM605.144 31.1525C603.044 46.8123 590.41 58.7406 575.447 59.466C576.11 43.8401 587.435 30.6028 602.305 28.3645C602.438 28.3446 603.75 28.1973 604.432 29.0388C604.925 29.6451 605.248 30.3563 605.141 31.1525H605.144Z" fill="url(#paint5_radial_417_40)"/>
<path d="M498.421 27.0186C497.223 25.8371 495.557 25.3045 493.885 25.5623C488.476 26.3783 483.501 28.5231 479.243 31.6483C478.699 23.7716 475.488 15.5323 470.42 9.1913C468.28 6.51664 463.719 6.51664 461.58 9.1913C456.593 15.4303 453.323 23.8396 452.759 31.6455C448.436 28.4835 443.373 26.333 437.865 25.5538C436.284 25.3356 434.72 25.8541 433.564 26.996C432.399 28.1406 431.849 29.7103 432.051 31.2998C434.292 48.994 448.886 62.3361 465.997 62.3361C482.997 62.3361 497.594 49.0931 499.949 31.5293C500.175 29.8406 499.617 28.1973 498.419 27.0186H498.421ZM463.792 10.9565C464.849 9.6333 467.15 9.6333 468.207 10.9565C473.372 17.4193 476.463 25.9845 476.491 33.8895C471.578 38.335 467.892 44.1971 466.005 50.796C464.118 44.183 460.432 38.318 455.511 33.8781C455.542 26.0893 458.709 17.3173 463.795 10.9565H463.792ZM434.864 30.94C434.773 30.2345 435.009 29.512 435.553 29.0105C436.286 28.3333 437.366 28.3418 437.468 28.356C452.468 30.481 463.889 43.7211 464.555 59.466C449.498 58.7378 436.864 46.7188 434.864 30.94ZM497.144 31.1525C495.044 46.8123 482.41 58.7406 467.447 59.466C468.11 43.8401 479.435 30.6028 494.305 28.3645C494.438 28.3446 495.75 28.1973 496.432 29.0388C496.925 29.6451 497.248 30.3563 497.141 31.1525H497.144Z" fill="url(#paint6_radial_417_40)"/>
<path d="M390.421 27.0186C389.223 25.8371 387.557 25.3045 385.885 25.5623C380.476 26.3783 375.501 28.5231 371.243 31.6483C370.699 23.7716 367.488 15.5323 362.42 9.1913C360.28 6.51664 355.719 6.51664 353.58 9.1913C348.593 15.4303 345.323 23.8396 344.759 31.6455C340.436 28.4835 335.373 26.333 329.865 25.5538C328.284 25.3356 326.72 25.8541 325.564 26.996C324.399 28.1406 323.849 29.7103 324.051 31.2998C326.292 48.994 340.886 62.3361 357.997 62.3361C374.997 62.3361 389.594 49.0931 391.949 31.5293C392.175 29.8406 391.617 28.1973 390.419 27.0186H390.421ZM355.792 10.9565C356.849 9.6333 359.15 9.6333 360.207 10.9565C365.372 17.4193 368.463 25.9845 368.491 33.8895C363.578 38.335 359.892 44.1971 358.005 50.796C356.118 44.183 352.432 38.318 347.511 33.8781C347.542 26.0893 350.709 17.3173 355.795 10.9565H355.792ZM326.864 30.94C326.773 30.2345 327.009 29.512 327.553 29.0105C328.286 28.3333 329.366 28.3418 329.468 28.356C344.468 30.481 355.889 43.7211 356.555 59.466C341.498 58.7378 328.864 46.7188 326.864 30.94ZM389.144 31.1525C387.044 46.8123 374.41 58.7406 359.447 59.466C360.11 43.8401 371.435 30.6028 386.305 28.3645C386.438 28.3446 387.75 28.1973 388.432 29.0388C388.925 29.6451 389.248 30.3563 389.141 31.1525H389.144Z" fill="url(#paint7_radial_417_40)"/>
<path d="M282.421 27.0186C281.223 25.8371 279.557 25.3045 277.885 25.5623C272.476 26.3783 267.501 28.5231 263.243 31.6483C262.699 23.7716 259.488 15.5323 254.42 9.1913C252.28 6.51664 247.719 6.51664 245.58 9.1913C240.593 15.4303 237.323 23.8396 236.759 31.6455C232.436 28.4835 227.373 26.333 221.865 25.5538C220.284 25.3356 218.72 25.8541 217.564 26.996C216.399 28.1406 215.849 29.7103 216.051 31.2998C218.292 48.994 232.886 62.3361 249.997 62.3361C266.997 62.3361 281.594 49.0931 283.949 31.5293C284.175 29.8406 283.617 28.1973 282.419 27.0186H282.421ZM247.792 10.9565C248.849 9.6333 251.15 9.6333 252.207 10.9565C257.372 17.4193 260.463 25.9845 260.491 33.8895C255.578 38.335 251.892 44.1971 250.005 50.796C248.118 44.183 244.432 38.318 239.511 33.8781C239.542 26.0893 242.709 17.3173 247.795 10.9565H247.792ZM218.864 30.94C218.773 30.2345 219.009 29.512 219.553 29.0105C220.286 28.3333 221.366 28.3418 221.468 28.356C236.468 30.481 247.889 43.7211 248.555 59.466C233.498 58.7378 220.864 46.7188 218.864 30.94ZM281.144 31.1525C279.044 46.8123 266.41 58.7406 251.447 59.466C252.11 43.8401 263.435 30.6028 278.305 28.3645C278.438 28.3446 279.75 28.1973 280.432 29.0388C280.925 29.6451 281.248 30.3563 281.141 31.1525H281.144Z" fill="url(#paint8_radial_417_40)"/>
<path d="M174.421 27.0186C173.223 25.8371 171.557 25.3045 169.885 25.5623C164.476 26.3783 159.501 28.5231 155.243 31.6483C154.699 23.7716 151.488 15.5323 146.42 9.1913C144.28 6.51664 139.719 6.51664 137.58 9.1913C132.593 15.4303 129.323 23.8396 128.759 31.6455C124.436 28.4835 119.373 26.333 113.865 25.5538C112.284 25.3356 110.72 25.8541 109.564 26.996C108.399 28.1406 107.849 29.7103 108.051 31.2998C110.292 48.994 124.886 62.3361 141.997 62.3361C158.997 62.3361 173.594 49.0931 175.949 31.5293C176.175 29.8406 175.617 28.1973 174.419 27.0186H174.421ZM139.792 10.9565C140.849 9.6333 143.15 9.6333 144.207 10.9565C149.372 17.4193 152.463 25.9845 152.491 33.8895C147.578 38.335 143.892 44.1971 142.005 50.796C140.118 44.183 136.432 38.318 131.511 33.8781C131.542 26.0893 134.709 17.3173 139.795 10.9565H139.792ZM110.864 30.94C110.773 30.2345 111.009 29.512 111.553 29.0105C112.286 28.3333 113.366 28.3418 113.468 28.356C128.468 30.481 139.889 43.7211 140.555 59.466C125.498 58.7378 112.864 46.7188 110.864 30.94ZM173.144 31.1525C171.044 46.8123 158.41 58.7406 143.447 59.466C144.11 43.8401 155.435 30.6028 170.305 28.3645C170.438 28.3446 171.75 28.1973 172.432 29.0388C172.925 29.6451 173.248 30.3563 173.141 31.1525H173.144Z" fill="url(#paint9_radial_417_40)"/>
<defs>
<radialGradient id="paint0_radial_417_40" cx="0" cy="0" r="1" gradientUnits="userSpaceOnUse" gradientTransform="translate(34.0039 34.7607) rotate(90) scale(27.5754 33.9941)">
<stop offset="0.13" stop-color="#4501D4"/>
<stop offset="1" stop-color="#CC009F" stop-opacity="0.77"/>
</radialGradient>
<radialGradient id="paint1_radial_417_40" cx="0" cy="0" r="1" gradientUnits="userSpaceOnUse" gradientTransform="translate(1006 34.7607) rotate(90) scale(27.5754 33.9941)">
<stop offset="0.13" stop-color="#4501D4"/>
<stop offset="1" stop-color="#CC009F" stop-opacity="0.77"/>
</radialGradient>
<radialGradient id="paint2_radial_417_40" cx="0" cy="0" r="1" gradientUnits="userSpaceOnUse" gradientTransform="translate(898.004 34.7607) rotate(90) scale(27.5754 33.9941)">
<stop offset="0.13" stop-color="#4501D4"/>
<stop offset="1" stop-color="#CC009F" stop-opacity="0.77"/>
</radialGradient>
<radialGradient id="paint3_radial_417_40" cx="0" cy="0" r="1" gradientUnits="userSpaceOnUse" gradientTransform="translate(682.004 34.7607) rotate(90) scale(27.5754 33.9941)">
<stop offset="0.13" stop-color="#4501D4"/>
<stop offset="1" stop-color="#CC009F" stop-opacity="0.77"/>
</radialGradient>
<radialGradient id="paint4_radial_417_40" cx="0" cy="0" r="1" gradientUnits="userSpaceOnUse" gradientTransform="translate(790.004 34.7607) rotate(90) scale(27.5754 33.9941)">
<stop offset="0.13" stop-color="#4501D4"/>
<stop offset="1" stop-color="#CC009F" stop-opacity="0.77"/>
</radialGradient>
<radialGradient id="paint5_radial_417_40" cx="0" cy="0" r="1" gradientUnits="userSpaceOnUse" gradientTransform="translate(574.004 34.7607) rotate(90) scale(27.5754 33.9941)">
<stop offset="0.13" stop-color="#4501D4"/>
<stop offset="1" stop-color="#CC009F" stop-opacity="0.77"/>
</radialGradient>
<radialGradient id="paint6_radial_417_40" cx="0" cy="0" r="1" gradientUnits="userSpaceOnUse" gradientTransform="translate(466.004 34.7607) rotate(90) scale(27.5754 33.9941)">
<stop offset="0.13" stop-color="#4501D4"/>
<stop offset="1" stop-color="#CC009F" stop-opacity="0.77"/>
</radialGradient>
<radialGradient id="paint7_radial_417_40" cx="0" cy="0" r="1" gradientUnits="userSpaceOnUse" gradientTransform="translate(358.004 34.7607) rotate(90) scale(27.5754 33.9941)">
<stop offset="0.13" stop-color="#4501D4"/>
<stop offset="1" stop-color="#CC009F" stop-opacity="0.77"/>
</radialGradient>
<radialGradient id="paint8_radial_417_40" cx="0" cy="0" r="1" gradientUnits="userSpaceOnUse" gradientTransform="translate(250.004 34.7607) rotate(90) scale(27.5754 33.9941)">
<stop offset="0.13" stop-color="#4501D4"/>
<stop offset="1" stop-color="#CC009F" stop-opacity="0.77"/>
</radialGradient>
<radialGradient id="paint9_radial_417_40" cx="0" cy="0" r="1" gradientUnits="userSpaceOnUse" gradientTransform="translate(142.004 34.7607) rotate(90) scale(27.5754 33.9941)">
<stop offset="0.13" stop-color="#4501D4"/>
<stop offset="1" stop-color="#CC009F" stop-opacity="0.77"/>
</radialGradient>
</defs>
</svg>
