<svg xmlns="http://www.w3.org/2000/svg" xmlns:xlink="http://www.w3.org/1999/xlink" version="1.1" x="0px" y="0px" viewBox="0 0 100 125" enable-background="new 0 0 100 100" xml:space="preserve" fill="#9727BB"><g><g><g><path d="M47.749,5L47.749,5c-0.288,0-0.538,0.172-0.638,0.437c-0.097,0.258-0.025,0.533,0.187,0.719     c1.564,1.365,2.394,3.359,2.278,5.471c-0.118,2.154-1.196,4.092-2.957,5.317c-0.243,0.169-0.344,0.456-0.257,0.731     c0.088,0.281,0.35,0.471,0.651,0.471l0.061-0.002c4.353-0.351,6.444-3.438,6.586-6.342c0.138-2.838-1.595-6.038-5.78-6.79     C47.837,5.004,47.792,5,47.749,5z"/></g><path d="M50.023,61.999c8.141,0,20.761-8.777,13.741-23.499c-0.393-0.824,0.732-1.517,1.283-0.79    c11.625,15.355-1.063,32.072-15.024,32.072h-0.045c-13.961,0-26.649-16.717-15.024-32.072c0.551-0.728,1.676-0.034,1.283,0.79    C29.217,53.222,42.063,61.999,50.023,61.999L50.023,61.999z"/><path d="M60.879,74.841c9.612-4.494,19.223-0.315,19.223,9.098c0,6.348-5.974,14.285-15.584,9.534    c-0.664-0.328-0.323-1.321,0.405-1.183c5.695,1.082,9.701-2.839,9.701-7.259c0-6.563-7.359-6.012-11.733-3.508L39.121,93.189    c-9.612,4.494-19.223,0.315-19.223-9.098c0-6.348,5.974-14.285,15.584-9.534c0.664,0.328,0.323,1.321-0.405,1.183    c-5.695-1.082-9.701,2.839-9.701,7.259c0,6.563,7.359,6.012,11.733,3.508L60.881,74.84L60.879,74.841z"/><path d="M50,23.672c-9.557,0-11.465,14.069-5.809,19.744c0.591,0.593,1.536-0.166,1.086-0.872    c-3.002-4.717-0.54-12.571,4.723-12.562c5.263-0.009,7.725,7.845,4.723,12.562c-0.45,0.707,0.495,1.466,1.086,0.872    C61.465,37.741,59.557,23.672,50,23.672z"/></g></g></svg>