<svg width="360" height="241" viewBox="0 0 360 241" fill="none" xmlns="http://www.w3.org/2000/svg">
<g filter="url(#filter0_d_415_18)">
<path fill-rule="evenodd" clip-rule="evenodd" d="M86.1654 233H102.025C103.106 232.538 104.277 232.564 105.431 232.591C105.615 232.595 105.797 232.599 105.979 232.601C107.243 232.635 108.495 232.483 109.747 232.331C110.608 232.227 111.47 232.122 112.337 232.078C128.365 230.169 144.471 226.586 158.857 219.033C164.397 215.956 169.817 212.433 174.097 207.703C176.182 205.065 178.453 202.42 179.444 199.139C180.716 201.965 182.274 204.663 184.372 206.958C186.304 209.583 188.982 211.491 191.462 213.553C200.578 220.317 211.316 224.472 222.171 227.516C231.967 230.149 242.021 231.732 252.115 232.593C252.558 232.611 253.006 232.601 253.455 232.592C254.621 232.566 255.79 232.541 256.886 233H273.144C274.063 232.632 275.033 232.6 276.005 232.568C276.584 232.549 277.165 232.53 277.734 232.44C285.944 231.265 294.077 229.348 301.808 226.304C314.519 221.529 326.401 214.708 337.324 206.664C343.629 201.997 349.705 196.984 355.205 191.384V190.945C352.822 189.403 351.227 186.971 348.944 185.304C336.877 174.707 323.357 165.7 308.685 159.125C302.392 156.355 295.893 154.003 289.201 152.401C293.151 146.414 296.268 139.903 298.953 133.264C304.574 119.196 307.815 104.23 309.168 89.1632C309.651 84.7866 309.836 80.3938 309.699 75.989L309.511 75.9846C307.656 75.9415 305.796 75.898 303.958 76.1823C301.655 76.5568 299.308 76.1863 297.004 76.5648C284.837 77.656 272.754 79.9751 261.118 83.7277C247.569 88.1566 234.532 94.5746 223.508 103.69C222.521 104.584 221.503 105.442 220.428 106.219C220.707 105.034 220.716 103.826 220.726 102.617C220.734 101.574 220.742 100.532 220.923 99.5029C221.191 97.9104 221.16 96.2999 221.128 94.6894C221.096 93.0627 221.065 91.4361 221.342 89.8276C221.483 89.0505 221.483 88.2573 221.338 87.4842C220.915 85.2214 221.338 82.9023 220.915 80.6394C220.029 69.3818 216.8 58.4101 212.459 48.0221C206.15 33.6119 197.554 20.2444 187.379 8.26206C185.008 5.29063 182.274 2.64532 179.56 0C178.719 0.318091 178.203 1.19584 177.535 1.77966C174.773 4.40483 172.393 7.38832 169.901 10.2631C158.076 24.7378 148.211 41.0485 142.49 58.9133C139.933 66.7808 138.447 74.9663 137.779 83.2002C137.785 85.1377 137.783 87.0756 137.78 89.013C137.777 91.9192 137.773 94.825 137.799 97.7312C138.137 100.562 138.23 103.412 138.637 106.235C134.461 102.978 130.447 99.4626 125.885 96.7367C117.14 90.979 107.437 86.8601 97.5157 83.6068C85.3723 79.7537 72.7738 77.4224 60.0909 76.3796C58.3761 76.4593 56.6729 76.3115 54.9706 76.1637C53.0552 75.9975 51.1407 75.8312 49.2117 75.989C49.2283 76.8466 49.213 77.7066 49.1976 78.5666C49.1642 80.449 49.1308 82.3321 49.4292 84.1947C50.4317 99.8813 53.4192 115.516 58.8669 130.292C61.7739 137.987 65.2768 145.48 69.742 152.405C57.3328 155.429 45.5759 160.772 34.6283 167.29C26.7206 172.065 19.2075 177.481 12.1533 183.444C9.37917 185.956 6.3836 188.267 4 191.17C4.26172 192.298 5.48572 192.978 6.21047 193.86C15.9945 202.964 26.8213 210.984 38.4735 217.547C51.849 225.132 66.5733 230.544 81.8613 232.521C82.3175 232.566 82.7801 232.572 83.2423 232.58C84.2364 232.595 85.2308 232.61 86.1654 233ZM175.196 43.7179C176.388 42.2443 177.636 40.8028 179.073 39.5547C179.777 39.2991 180.251 39.8385 180.705 40.3551C180.895 40.5713 181.081 40.7831 181.28 40.9317C188.418 48.5938 194.663 57.1135 199.772 66.2613C202.595 71.6768 205.377 77.1566 207.153 83.023C209.556 89.6825 210.869 96.6964 211.296 103.742C211.293 105.138 211.293 106.534 211.293 107.929C211.292 110.164 211.292 112.398 211.28 114.634C211.377 115.927 210.509 116.95 209.715 117.888C209.619 118.002 209.524 118.114 209.432 118.225C202.208 126.242 195.899 135.063 190.435 144.36C185.886 152.3 182.073 160.735 179.838 169.629C179.653 169.637 179.282 169.65 179.097 169.658C178.477 165.933 176.983 162.438 175.699 158.915C169.422 143.732 160.057 129.994 149.202 117.722C147.674 116.364 147.658 114.248 147.644 112.313C147.642 112.004 147.64 111.7 147.631 111.405C147.674 110.202 147.652 108.994 147.628 107.787C147.587 105.615 147.545 103.444 147.889 101.299C148.988 87.7781 154.118 74.8817 160.918 63.2536C165.126 56.3646 169.792 49.7292 175.196 43.7179ZM77.15 107.398C77.1669 106.226 77.1834 105.054 77.1142 103.887C78.2689 103.923 79.4245 103.923 80.58 103.923C81.798 103.922 83.016 103.922 84.2327 103.964C86.8901 104.33 89.5676 104.52 92.2371 104.805C104.147 106.513 115.972 109.496 126.839 114.751C131.917 117.215 136.809 120.126 141.209 123.665C142.111 125.259 142.144 127.236 142.631 129C145.501 140.181 149.347 151.314 155.869 160.929C156.191 161.384 156.131 161.971 156.228 162.499C155.229 162.277 154.327 161.802 153.425 161.351C138.347 154.676 121.915 151.575 105.572 150.271C104.358 150.394 103.165 150.241 101.972 150.088C100.894 149.95 99.8163 149.811 98.7235 149.876C97.4625 149.879 96.201 149.877 94.94 149.875C92.074 149.871 89.2085 149.868 86.3425 149.912C83.9227 144.517 82.1068 138.86 80.754 133.107C79.0066 126.548 77.9637 119.808 77.4323 113.051C77.0965 111.186 77.1235 109.293 77.15 107.398ZM238.264 112.133C249.747 107.66 261.955 105.011 274.236 104.197C275.8 103.881 277.394 103.9 278.988 103.92C279.924 103.932 280.861 103.944 281.793 103.887C281.729 105.037 281.747 106.192 281.764 107.347C281.793 109.259 281.822 111.171 281.483 113.055C280.726 123.069 278.648 132.978 275.492 142.508C274.509 144.972 273.748 147.533 272.569 149.912C267.363 149.844 262.152 149.84 256.946 149.921C255.356 150.21 253.745 150.355 252.127 150.279C240.64 151.366 229.141 153.13 218.1 156.604C213.651 158.078 209.154 159.503 204.95 161.605C204.375 161.923 203.714 161.983 203.078 162.072C203.102 161.625 203.179 161.19 203.312 160.772C210.233 150.343 214.259 138.296 217.07 126.181C217.327 125.299 217.223 124.204 217.939 123.536C224.108 118.749 231.081 115.129 238.264 112.133ZM153.18 145.628C151.907 141.268 150.655 136.883 149.959 132.39C150.414 132.515 150.969 132.511 151.275 132.946C152.181 134.049 153.035 135.2 154.094 136.175C159.489 142.303 164.276 148.958 168.484 155.952C169.688 158.336 171.23 160.55 172.208 163.046C173.811 166.775 175.699 170.487 176.363 174.525C174.209 174.509 172.047 173.624 170.602 172.005C168.331 169.549 164.985 168.277 163.085 165.454C158.543 159.548 155.559 152.642 153.18 145.628ZM204.524 136.63C205.619 135.2 207.104 134.105 208.035 132.543C208.264 132.519 208.719 132.466 208.948 132.442C208.614 135.905 207.584 139.247 206.71 142.601C204.278 150.802 201.053 158.956 195.698 165.724C193.785 168.281 190.766 169.593 188.527 171.816C186.981 173.442 184.843 174.715 182.524 174.497C183.458 170.358 185.177 166.416 187.033 162.612C191.539 153.146 197.687 144.545 204.524 136.63ZM93.3162 161.661C96.9721 160.908 100.632 160.071 104.368 159.849C107.089 159.398 109.842 159.446 112.595 159.494C114.015 159.519 115.435 159.543 116.85 159.499C117.814 159.428 118.76 159.563 119.706 159.699C120.634 159.831 121.563 159.963 122.507 159.902C134.924 160.904 147.354 163.477 158.78 168.579C164.498 171.333 170.147 174.65 174.35 179.49C176.005 181.547 177.616 183.778 178.22 186.395C178.449 188.706 177.926 191.037 177.273 193.244C176.017 197.757 172.575 201.562 168.287 203.414C164.103 204.969 159.497 205.488 155.084 204.735C150.538 204.389 146.194 202.879 141.922 201.389C133.982 198.337 126.65 193.932 119.705 189.061C115.807 186.15 111.886 183.243 108.383 179.864C102.593 175.049 97.572 169.34 93.3605 163.103C93.2047 162.797 93.2437 162.461 93.2824 162.128C93.3005 161.971 93.3186 161.814 93.3162 161.661ZM208.852 165.241C216.981 162.551 225.452 160.937 233.972 160.16C235.993 159.725 238.087 160.055 240.104 159.56C243.2 159.469 246.303 159.485 249.404 159.5C250.32 159.505 251.236 159.509 252.151 159.511C256.665 159.998 261.186 160.562 265.599 161.665C265.592 161.823 265.612 161.986 265.631 162.15C265.67 162.477 265.709 162.805 265.543 163.095C263.852 165.897 261.754 168.409 259.709 170.954C252.489 178.818 244.304 185.759 235.462 191.734C228.742 196.086 221.66 200.008 214.002 202.44C209.029 204.063 203.823 205.25 198.565 205.041C194.337 204.872 190.053 203.652 186.719 200.966C183.248 198.063 181.247 193.63 180.885 189.165C179.985 185.29 182.623 182.049 184.941 179.2C185.142 178.953 185.341 178.709 185.535 178.467C191.941 172.057 200.316 168.015 208.852 165.241ZM271.852 172.593C273.817 170.668 275.745 168.703 277.686 166.755C278.266 165.986 279.256 166.37 280.018 166.666C280.087 166.692 280.154 166.718 280.219 166.743C293.095 172.617 304.956 180.718 315.159 190.518C316.041 191.114 315.377 192.076 314.753 192.547C305.267 201.353 294.605 208.987 282.924 214.62C274.948 218.336 266.541 221.283 257.788 222.451C256.033 222.781 254.233 222.753 252.481 223.099C250.333 223.189 248.182 223.174 246.031 223.159C244.703 223.15 243.376 223.14 242.049 223.156C241.361 223.185 240.689 223.074 240.018 222.962C239.499 222.876 238.98 222.79 238.453 222.769C235.484 222.809 232.54 222.397 229.6 221.986C229.019 221.905 228.44 221.824 227.86 221.746C220.142 220.768 212.564 218.823 205.248 216.182C199.016 213.754 192.867 210.759 187.838 206.269C186.546 205.267 185.044 204.179 184.879 202.404C185.503 202.521 186.212 202.537 186.707 203.008C190.749 206.193 195.972 207.312 200.988 207.799C208.365 208.033 215.68 206.366 222.642 204.006C239.702 197.91 254.921 187.535 268.438 175.617C269.48 174.501 270.7 173.591 271.852 172.593ZM48.0078 186.697C57.0308 178.89 67.0161 172.11 77.8912 167.153C78.1509 167.063 78.4111 166.944 78.6732 166.824C79.3528 166.511 80.0461 166.192 80.7902 166.372C82.8396 168.224 84.6152 170.374 86.7411 172.15C88.5852 173.507 89.9783 175.367 91.8344 176.712C102.859 186.411 115.115 194.822 128.522 200.878C137.63 204.953 147.466 207.964 157.516 207.815C161.933 207.469 166.45 206.644 170.32 204.369C171.705 203.608 172.82 202.339 174.402 201.969C174.258 202.589 174.366 203.366 173.811 203.809C169.607 208.262 164.264 211.463 158.776 214.08C148.098 218.827 136.551 221.432 124.943 222.495C123.867 222.749 122.769 222.753 121.672 222.757C121.132 222.759 120.592 222.761 120.055 222.793C117.527 223.245 114.963 223.203 112.4 223.16C111.06 223.137 109.721 223.115 108.387 223.164C97.4391 222.672 86.6968 219.625 76.8041 214.962C66.4323 210.118 56.91 203.571 48.2131 196.151C46.9891 194.951 45.7771 193.731 44.384 192.716C44.2983 192.632 44.1976 192.545 44.0929 192.455C43.6279 192.054 43.0828 191.584 43.4016 190.953C44.7061 189.298 46.5623 188.211 48.0078 186.697Z" fill="url(#paint0_linear_415_18)"/>
</g>
<defs>
<filter id="filter0_d_415_18" x="0" y="0" width="359.205" height="241" filterUnits="userSpaceOnUse" color-interpolation-filters="sRGB">
<feFlood flood-opacity="0" result="BackgroundImageFix"/>
<feColorMatrix in="SourceAlpha" type="matrix" values="0 0 0 0 0 0 0 0 0 0 0 0 0 0 0 0 0 0 127 0" result="hardAlpha"/>
<feOffset dy="4"/>
<feGaussianBlur stdDeviation="2"/>
<feComposite in2="hardAlpha" operator="out"/>
<feColorMatrix type="matrix" values="0 0 0 0 0 0 0 0 0 0 0 0 0 0 0 0 0 0 0.25 0"/>
<feBlend mode="normal" in2="BackgroundImageFix" result="effect1_dropShadow_415_18"/>
<feBlend mode="normal" in="SourceGraphic" in2="effect1_dropShadow_415_18" result="shape"/>
</filter>
<linearGradient id="paint0_linear_415_18" x1="179.603" y1="0" x2="179.603" y2="233" gradientUnits="userSpaceOnUse">
<stop stop-color="#DF25AC"/>
<stop offset="1" stop-color="#9825DF" stop-opacity="0.93"/>
</linearGradient>
</defs>
</svg>
