<svg width="236" height="96" viewBox="0 0 236 96" fill="none" xmlns="http://www.w3.org/2000/svg">
<path d="M7.55855 95.8693C10.5474 95.8693 13.0927 94.0567 13.0927 91.8971C13.0927 88.5804 9.79533 88.1562 8.0406 87.8284C7.34642 87.7127 5.39888 87.7127 5.39888 86.6907C5.39888 85.8423 6.30517 85.1674 7.40428 85.1674C9.04331 85.1674 9.56395 85.823 9.56395 86.1315H12.6685C12.6685 84.4539 10.933 82.6606 7.40428 82.6606C4.51187 82.6606 2.14008 84.4732 2.14008 86.6907C2.14008 89.0625 4.62756 89.7181 6.09305 90.0074C6.92221 90.1809 9.83391 90.2966 9.83391 91.8971C9.83391 92.6684 8.75408 93.3818 7.55855 93.3818C5.34104 93.3818 5.20604 91.685 5.20604 91.6657H1.94727C1.94727 93.3626 3.72128 95.8693 7.55855 95.8693Z" fill="url(#paint0_linear_415_20)"/>
<path d="M30.4538 95.5416H33.7897L27.7927 83.0078H25.5174L19.2891 95.5416H22.6828L23.5312 93.8254H29.6053L30.4538 95.5416ZM24.7846 91.3765L26.5586 87.3464L28.429 91.3765H24.7846Z" fill="url(#paint1_linear_415_20)"/>
<path d="M48.2779 83.0078H35.7441V85.7074H40.507V95.5416H43.5151V85.7074H48.2779V83.0078Z" fill="url(#paint2_linear_415_20)"/>
<path d="M65.8891 95.5416L63.1317 91.7622C64.4622 91.0487 65.3684 89.7568 65.3684 87.9442C65.3684 85.206 63.4402 83.0078 60.8756 83.0078C59.3908 83.0078 54.7822 83.0078 54.7822 83.0078V95.5416H57.8482V92.4178H60.0464L62.1096 95.5416H65.8891ZM57.8482 86.093H60.4128C61.4348 86.093 62.2639 86.9222 62.2639 87.9442C62.2639 88.9855 61.4155 89.6603 60.3935 89.6603H57.8482V86.093Z" fill="url(#paint3_linear_415_20)"/>
<path d="M82.2477 95.5416H85.5836L79.5867 83.0078H77.3113L71.083 95.5416H74.4768L75.3252 93.8254H81.3993L82.2477 95.5416ZM76.5786 91.3765L78.3526 87.3464L80.2231 91.3765H76.5786Z" fill="url(#paint4_linear_415_20)"/>
<path d="M100.572 83.0078V90.8173L94.3245 83.0078H91.3164V95.5416H94.3245V88.0406L100.572 95.5416H103.58V83.0078H100.572Z" fill="url(#paint5_linear_415_20)"/>
<path d="M122.214 88.0984H115.774V90.5087H119.573V91.8199C118.898 92.5141 117.953 92.9576 116.892 92.9576C114.848 92.9576 113.171 91.2993 113.171 89.2553C113.171 87.2114 114.848 85.5338 116.892 85.5338C118.146 85.5338 118.994 85.9387 119.765 86.6522L122.06 85.1867C120.845 83.5476 119.071 82.6414 116.892 82.6414C113.248 82.6414 110.278 85.6109 110.278 89.2553C110.278 92.8998 113.248 95.85 116.892 95.85C119.071 95.85 121 94.8087 122.195 93.189H122.214L122.214 88.0984Z" fill="url(#paint6_linear_415_20)"/>
<path d="M128.236 83.0078V95.5416H131.244V83.0078H128.236Z" fill="url(#paint7_linear_415_20)"/>
<path d="M159.218 83.0078L155.824 87.5585L152.411 83.0078H148.67L153.953 90.2581V95.5416H157.694V90.2581L162.958 83.0078H159.218Z" fill="url(#paint8_linear_415_20)"/>
<path d="M173.05 82.6799C169.386 82.6799 166.436 85.6495 166.436 89.2939C166.436 92.9384 169.386 95.8886 173.05 95.8886C176.694 95.8886 179.644 92.9384 179.644 89.2939C179.644 85.6495 176.694 82.6799 173.05 82.6799ZM173.05 92.9962C170.986 92.9962 169.328 91.3379 169.328 89.2939C169.328 87.2499 170.986 85.5724 173.05 85.5724C175.094 85.5724 176.752 87.2499 176.752 89.2939C176.752 91.3379 175.094 92.9962 173.05 92.9962Z" fill="url(#paint9_linear_415_20)"/>
<path d="M197.969 88.0984H191.529V90.5087H195.327V91.8199C194.653 92.5141 193.708 92.9576 192.647 92.9576C190.603 92.9576 188.926 91.2993 188.926 89.2553C188.926 87.2114 190.603 85.5338 192.647 85.5338C193.901 85.5338 194.749 85.9387 195.52 86.6522L197.815 85.1867C196.6 83.5476 194.826 82.6414 192.647 82.6414C189.003 82.6414 186.033 85.6109 186.033 89.2553C186.033 92.8998 189.003 95.85 192.647 95.85C194.826 95.85 196.754 94.8087 197.95 93.189H197.969V88.0984Z" fill="url(#paint10_linear_415_20)"/>
<path d="M213.788 95.5416H217.124L211.127 83.0078H208.851L202.623 95.5416H206.017L206.865 93.8254H212.939L213.788 95.5416ZM208.119 91.3765L209.893 87.3464L211.763 91.3765H208.119Z" fill="url(#paint11_linear_415_20)"/>
<path d="M0.716797 66.2464V64.1331H236V66.2464H0.716797Z" fill="url(#paint12_linear_415_20)"/>
<path fill-rule="evenodd" clip-rule="evenodd" d="M28.1427 59.7767H31.2586C31.471 59.6859 31.701 59.6911 31.9279 59.6963C31.9638 59.6971 31.9997 59.698 32.0354 59.6984C32.2838 59.7049 32.5298 59.6751 32.7758 59.6453C32.945 59.6247 33.1143 59.6042 33.2845 59.5955C36.4336 59.2206 39.5978 58.5165 42.4242 57.0325C43.5126 56.4282 44.5774 55.736 45.4182 54.8066C45.828 54.2884 46.2742 53.7687 46.4688 53.124C46.7187 53.6793 47.0249 54.2093 47.437 54.6602C47.8167 55.176 48.3427 55.5509 48.83 55.956C50.6209 57.2849 52.7306 58.1013 54.8633 58.6993C56.7879 59.2166 58.7631 59.5275 60.7462 59.6968C60.8333 59.7003 60.9214 59.6984 61.0096 59.6965C61.2386 59.6915 61.4683 59.6864 61.6836 59.7767H64.8778C65.0583 59.7043 65.2489 59.6981 65.4399 59.6919C65.5537 59.6882 65.6677 59.6844 65.7796 59.6667C67.3925 59.4357 68.9904 59.0592 70.5092 58.4612C73.0065 57.523 75.3409 56.183 77.487 54.6025C78.7258 53.6857 79.9194 52.7008 81 51.6005V51.5143C80.5317 51.2113 80.2185 50.7335 79.7699 50.406C77.3992 48.324 74.7429 46.5544 71.8603 45.2627C70.6239 44.7184 69.3472 44.2565 68.0325 43.9416C68.8085 42.7654 69.4208 41.4863 69.9484 40.1818C71.0527 37.4179 71.6895 34.4776 71.9553 31.5176C72.0502 30.6577 72.0866 29.7947 72.0597 28.9293L72.0226 28.9284C71.6583 28.92 71.2928 28.9114 70.9317 28.9673C70.4792 29.0408 70.018 28.9681 69.5655 29.0424C67.175 29.2568 64.8011 29.7124 62.515 30.4497C59.8531 31.3198 57.2918 32.5807 55.1259 34.3716C54.9321 34.5473 54.732 34.7158 54.5207 34.8684C54.5756 34.6356 54.5774 34.3982 54.5793 34.1608C54.5809 33.956 54.5825 33.7511 54.618 33.549C54.6708 33.2361 54.6646 32.9197 54.6584 32.6033C54.6521 32.2837 54.6459 31.9641 54.7003 31.6481C54.728 31.4954 54.728 31.3396 54.6995 31.1877C54.6165 30.7431 54.6995 30.2875 54.6165 29.8429C54.4424 27.6312 53.808 25.4756 52.9553 23.4347C51.7157 20.6036 50.0269 17.9774 48.0279 15.6232C47.562 15.0394 47.0249 14.5197 46.4917 14C46.3264 14.0625 46.2251 14.2349 46.0938 14.3496C45.5512 14.8654 45.0836 15.4516 44.594 16.0164C42.2707 18.8602 40.3327 22.0646 39.2086 25.5745C38.7063 27.1202 38.4144 28.7284 38.2831 30.346C38.2843 30.7267 38.2839 31.1074 38.2833 31.4881C38.2826 32.059 38.2818 32.6299 38.287 33.2009C38.3535 33.757 38.3717 34.3171 38.4516 34.8716C37.6313 34.2316 36.8426 33.5411 35.9464 33.0055C34.2282 31.8743 32.3218 31.0651 30.3727 30.4259C27.9869 29.6689 25.5117 29.2109 23.02 29.006C22.6831 29.0217 22.3485 28.9926 22.014 28.9636C21.6377 28.9309 21.2616 28.8983 20.8826 28.9293C20.8858 29.0978 20.8828 29.2667 20.8798 29.4357C20.8733 29.8055 20.8667 30.1755 20.9253 30.5414C21.1223 33.6233 21.7092 36.6949 22.7795 39.598C23.3506 41.1097 24.0388 42.5818 24.9161 43.9424C22.4781 44.5365 20.1683 45.5862 18.0174 46.8669C16.4638 47.8051 14.9878 48.869 13.6019 50.0406C13.0568 50.5342 12.4683 50.9882 12 51.5586C12.0514 51.78 12.2919 51.9137 12.4343 52.087C14.3565 53.8755 16.4836 55.4513 18.7729 56.7407C21.4007 58.231 24.2936 59.2941 27.2971 59.6825C27.3868 59.6913 27.4776 59.6927 27.5685 59.6941C27.7638 59.697 27.9591 59.7 28.1427 59.7767ZM45.6342 22.5891C45.8684 22.2996 46.1136 22.0164 46.396 21.7712C46.5343 21.721 46.6274 21.8269 46.7166 21.9284C46.7539 21.9709 46.7905 22.0125 46.8295 22.0417C48.232 23.5471 49.4589 25.2209 50.4627 27.0181C51.0172 28.0821 51.5638 29.1587 51.9127 30.3112C52.3849 31.6196 52.6428 32.9976 52.7267 34.3819C52.726 34.6562 52.726 34.9303 52.726 35.2044C52.726 35.6435 52.726 36.0824 52.7235 36.5217C52.7426 36.7757 52.5722 36.9768 52.4161 37.1611C52.3972 37.1834 52.3785 37.2054 52.3604 37.2273C50.9413 38.8022 49.7017 40.5354 48.6283 42.3619C47.7344 43.9218 46.9853 45.5791 46.5463 47.3265C46.5099 47.3281 46.4371 47.3304 46.4007 47.332C46.2789 46.6003 45.9854 45.9137 45.7331 45.2215C44.4998 42.2385 42.6599 39.5395 40.5273 37.1284C40.2271 36.8617 40.224 36.446 40.2213 36.0657C40.2208 36.0051 40.2204 35.9453 40.2187 35.8873C40.2272 35.651 40.2227 35.4137 40.2181 35.1765C40.21 34.7498 40.2017 34.3232 40.2694 33.9018C40.4853 31.2454 41.4931 28.7117 42.8292 26.4272C43.6558 25.0737 44.5726 23.7701 45.6342 22.5891ZM26.3715 35.1002C26.3748 34.8699 26.3781 34.6396 26.3645 34.4104C26.5913 34.4174 26.8184 34.4174 27.0454 34.4174C27.2847 34.4173 27.524 34.4173 27.763 34.4254C28.2851 34.4974 28.8112 34.5346 29.3356 34.5908C31.6755 34.9262 33.9988 35.5123 36.1338 36.5446C37.1313 37.0287 38.0924 37.6007 38.957 38.296C39.1342 38.6092 39.1406 38.9976 39.2363 39.3441C39.8003 41.5408 40.5557 43.728 41.8372 45.617C41.9005 45.7064 41.8886 45.8219 41.9076 45.9256C41.7114 45.882 41.5343 45.7887 41.3571 45.7001C38.3946 44.3886 35.1664 43.7795 31.9555 43.5232C31.717 43.5473 31.4825 43.5172 31.2481 43.4872C31.0364 43.46 30.8247 43.4329 30.61 43.4456C30.3622 43.4461 30.1144 43.4458 29.8666 43.4455C29.3036 43.4447 28.7406 43.444 28.1775 43.4528C27.7021 42.3928 27.3454 41.2814 27.0796 40.151C26.7363 38.8624 26.5314 37.5382 26.427 36.2108C26.361 35.8443 26.3663 35.4724 26.3715 35.1002ZM58.025 36.0304C60.2811 35.1516 62.6795 34.6311 65.0922 34.4713C65.3996 34.4091 65.7127 34.4129 66.0259 34.4169C66.2099 34.4192 66.3939 34.4215 66.577 34.4104C66.5645 34.6362 66.5679 34.8632 66.5713 35.0901C66.577 35.4657 66.5827 35.8413 66.5161 36.2116C66.3673 38.1789 65.9592 40.1257 65.339 41.998C65.146 42.4822 64.9965 42.9853 64.7647 43.4528C63.7419 43.4393 62.7183 43.4385 61.6955 43.4543C61.383 43.5113 61.0666 43.5398 60.7486 43.5248C58.4918 43.7383 56.2326 44.0848 54.0635 44.7675C53.1894 45.057 52.3058 45.337 51.48 45.7499C51.3669 45.8124 51.2371 45.8243 51.1122 45.8417C51.1169 45.7539 51.1319 45.6685 51.158 45.5862C52.5178 43.5374 53.3089 41.1706 53.861 38.7904C53.9116 38.6171 53.8911 38.402 54.0319 38.2707C55.2437 37.3301 56.6138 36.619 58.025 36.0304ZM41.3088 42.6111C41.0588 41.7544 40.8128 40.893 40.676 40.0102C40.7654 40.0347 40.8745 40.0339 40.9346 40.1193C41.1126 40.3361 41.2803 40.5623 41.4884 40.7537C42.5484 41.9577 43.4889 43.2653 44.3155 44.6393C44.5521 45.1076 44.855 45.5427 45.0473 46.0331C45.3621 46.7656 45.7331 47.495 45.8636 48.2884C45.4404 48.2852 45.0156 48.1112 44.7316 47.7932C44.2855 47.3107 43.6281 47.0607 43.2548 46.5062C42.3625 45.3457 41.7763 43.9891 41.3088 42.6111ZM51.3961 40.8431C51.6113 40.5623 51.9032 40.3472 52.0859 40.0402C52.131 40.0355 52.2204 40.0252 52.2655 40.0205C52.1998 40.7007 51.9973 41.3573 51.8257 42.0162C51.3479 43.6276 50.7143 45.2294 49.6622 46.5592C49.2864 47.0615 48.6932 47.3194 48.2533 47.756C47.9496 48.0756 47.5295 48.3256 47.0739 48.2829C47.2574 47.4697 47.5952 46.6952 47.9599 45.9477C48.845 44.088 50.053 42.3983 51.3961 40.8431ZM29.5476 45.761C30.2659 45.6131 30.9849 45.4486 31.719 45.4051C32.2535 45.3163 32.7944 45.3257 33.3353 45.3351C33.6143 45.34 33.8932 45.3449 34.1712 45.3362C34.3606 45.3222 34.5465 45.3488 34.7324 45.3754C34.9148 45.4014 35.0971 45.4274 35.2827 45.4153C37.7222 45.6123 40.1642 46.1178 42.4091 47.12C43.5324 47.6611 44.6422 48.3129 45.4681 49.2637C45.7932 49.668 46.1096 50.1062 46.2283 50.6204C46.2734 51.0744 46.1705 51.5324 46.0424 51.9659C45.7956 52.8527 45.1192 53.6002 44.2768 53.9641C43.4549 54.2694 42.5499 54.3715 41.683 54.2236C40.7899 54.1555 39.9363 53.8589 39.0971 53.5662C37.5371 52.9666 36.0966 52.1012 34.7321 51.144C33.9664 50.5721 33.1959 50.001 32.5077 49.3373C31.3702 48.3912 30.3838 47.2695 29.5563 46.0442C29.5257 45.9841 29.5334 45.9181 29.541 45.8528C29.5445 45.8219 29.5481 45.791 29.5476 45.761ZM52.2465 46.4643C53.8436 45.9358 55.508 45.6186 57.1818 45.466C57.5789 45.3805 57.9902 45.4454 58.3866 45.3481C58.9948 45.3304 59.6044 45.3334 60.2137 45.3365C60.3937 45.3373 60.5735 45.3382 60.7533 45.3386C61.6401 45.4343 62.5284 45.5451 63.3954 45.7618C63.3941 45.7927 63.3979 45.8249 63.4017 45.857C63.4093 45.9212 63.417 45.9858 63.3843 46.0426C63.0521 46.5932 62.64 47.0868 62.2381 47.5867C60.8198 49.1316 59.2116 50.4954 57.4745 51.6693C56.1542 52.5244 54.7628 53.2949 53.2582 53.7727C52.2813 54.0915 51.2585 54.3248 50.2254 54.2837C49.3948 54.2504 48.5531 54.0108 47.8982 53.4831C47.2163 52.9128 46.8231 52.0419 46.7519 51.1646C46.5751 50.4033 47.0934 49.7665 47.5488 49.2069C47.5884 49.1583 47.6275 49.1103 47.6656 49.0628C48.9241 47.8035 50.5695 47.0093 52.2465 46.4643ZM64.6239 47.9087C65.0099 47.5306 65.3888 47.1445 65.7701 46.7617C65.884 46.6108 66.0785 46.6861 66.2283 46.7442C66.2418 46.7494 66.255 46.7546 66.2677 46.7593C68.7974 47.9134 71.1278 49.505 73.1323 51.4304C73.3056 51.5475 73.175 51.7365 73.0524 51.8291C71.1887 53.5591 69.0941 55.0589 66.7993 56.1656C65.2322 56.8957 63.5805 57.4747 61.8608 57.7041C61.5159 57.769 61.1623 57.7635 60.8182 57.8315C60.3962 57.8491 59.9735 57.8461 59.551 57.8432C59.2901 57.8414 59.0293 57.8396 58.7686 57.8426C58.6334 57.8483 58.5015 57.8265 58.3696 57.8046C58.2676 57.7877 58.1657 57.7707 58.0622 57.7666C57.4788 57.7745 56.9004 57.6936 56.3227 57.6128C56.2087 57.5969 56.0949 57.581 55.981 57.5657C54.4646 57.3735 52.9758 56.9914 51.5385 56.4725C50.314 55.9955 49.1061 55.407 48.1181 54.525C47.8641 54.328 47.5691 54.1144 47.5367 53.7656C47.6593 53.7885 47.7985 53.7917 47.8958 53.8842C48.69 54.5099 49.716 54.7298 50.7016 54.8256C52.1508 54.8714 53.5881 54.5439 54.9558 54.0804C58.3074 52.8828 61.2976 50.8443 63.9531 48.5028C64.158 48.2837 64.3977 48.1049 64.6239 47.9087ZM20.6461 50.6797C22.4188 49.1459 24.3805 47.8138 26.5171 46.84C26.5682 46.8224 26.6193 46.7989 26.6708 46.7752C26.8043 46.7138 26.9405 46.6512 27.0867 46.6865C27.4893 47.0504 27.8382 47.4728 28.2558 47.8217C28.6181 48.0883 28.8918 48.4537 29.2565 48.7179C31.4224 50.6235 33.8303 52.276 36.4645 53.4658C38.2538 54.2663 40.1863 54.858 42.1607 54.8287C43.0285 54.7607 43.9161 54.5985 44.6762 54.1516C44.9484 54.0021 45.1675 53.7529 45.4784 53.6801C45.4499 53.8019 45.4712 53.9546 45.3621 54.0416C44.5362 54.9165 43.4865 55.5454 42.4083 56.0596C40.3105 56.9922 38.0418 57.504 35.7612 57.7128C35.5498 57.7627 35.3341 57.7635 35.1187 57.7643C35.0125 57.7647 34.9064 57.7651 34.8009 57.7714C34.3043 57.8602 33.8005 57.8518 33.297 57.8434C33.0337 57.839 32.7705 57.8347 32.5085 57.8442C30.3576 57.7476 28.2471 57.1488 26.3036 56.2328C24.2658 55.2812 22.395 53.995 20.6864 52.5371C20.4459 52.3013 20.2078 52.0617 19.9341 51.8623C19.9173 51.8458 19.8975 51.8287 19.8769 51.811C19.7855 51.7322 19.6785 51.6398 19.7411 51.5158C19.9974 51.1907 20.3621 50.9771 20.6461 50.6797Z" fill="url(#paint13_linear_415_20)"/>
<path d="M107.47 58.38C105.837 58.38 104.11 58.1233 102.29 57.61C100.517 57.1433 98.93 56.35 97.53 55.23C96.1767 54.11 95.2667 52.6167 94.8 50.75C94.7533 50.5167 94.7067 50.26 94.66 49.98C94.66 49.7 94.66 49.42 94.66 49.14C94.66 47.6933 94.9867 46.2933 95.64 44.94C96.2933 43.5867 97.0867 42.56 98.02 41.86H98.09C98.1833 41.86 98.3 41.9767 98.44 42.21C98.6267 42.3967 98.6267 42.5367 98.44 42.63C97.9733 43.0967 97.6233 43.6333 97.39 44.24C97.2033 44.8 97.11 45.4067 97.11 46.06C97.11 46.9467 97.25 47.8567 97.53 48.79C97.8567 49.6767 98.2533 50.4467 98.72 51.1C99.8867 52.7333 101.497 54.04 103.55 55.02C105.65 55.9533 107.703 56.42 109.71 56.42C112.463 56.42 114.587 55.6033 116.08 53.97C117.62 52.3367 118.39 50.33 118.39 47.95C118.39 46.5033 118.11 45.0567 117.55 43.61C116.803 41.6033 115.8 39.6433 114.54 37.73C113.327 35.77 112.207 33.8567 111.18 31.99C110.293 30.31 109.85 28.6067 109.85 26.88C109.85 25.06 110.41 23.31 111.53 21.63C112.65 20.1367 114.12 18.9467 115.94 18.06C117.807 17.1267 119.697 16.66 121.61 16.66C122.917 16.66 124.177 16.8933 125.39 17.36C126.603 17.8267 127.7 18.5967 128.68 19.67C128.96 20.09 129.1 20.6267 129.1 21.28C129.1 22.2133 128.913 22.9367 128.54 23.45C128.12 24.0567 127.653 24.85 127.14 25.83C126.627 26.81 126.323 27.4867 126.23 27.86C126.137 27.9067 125.903 28 125.53 28.14C125.203 28.2333 124.993 28.21 124.9 28.07C125.087 27.6967 125.343 27.02 125.67 26.04C125.997 25.06 126.16 24.1733 126.16 23.38C126.16 22.8667 126.137 22.3067 126.09 21.7C126.09 21.0467 125.787 20.4867 125.18 20.02C124.62 19.5067 123.897 19.0633 123.01 18.69C122.123 18.3167 121.05 18.13 119.79 18.13C117.223 18.13 115.263 18.8767 113.91 20.37C112.557 21.8633 111.88 23.4967 111.88 25.27C111.88 26.1567 112.067 27.0433 112.44 27.93C113.14 29.61 114.12 31.1967 115.38 32.69C116.64 34.1833 117.877 35.7233 119.09 37.31C120.35 38.85 121.33 40.53 122.03 42.35C122.497 43.5633 122.73 44.8 122.73 46.06C122.73 47.88 122.263 49.5367 121.33 51.03C120.443 52.5233 119.23 53.83 117.69 54.95C116.197 56.0233 114.563 56.8633 112.79 57.47C111.017 58.0767 109.243 58.38 107.47 58.38ZM118.752 80.5C116.979 80.5 115.275 80.08 113.642 79.24C111.962 78.4467 110.725 77.21 109.932 75.53C109.652 74.9233 109.465 74.27 109.372 73.57C109.279 72.9167 109.232 72.2633 109.232 71.61V70.84C109.232 70.4667 109.279 70.1167 109.372 69.79C109.465 69.51 109.699 69.37 110.072 69.37C110.165 69.37 110.212 69.4167 110.212 69.51C110.212 69.79 110.189 70.07 110.142 70.35C110.095 70.63 110.072 70.9333 110.072 71.26C110.072 73.4067 110.772 75.04 112.172 76.16C113.525 77.28 115.229 77.84 117.282 77.84C118.122 77.84 118.985 77.7467 119.872 77.56C120.759 77.3733 121.599 77.1167 122.392 76.79C125.332 75.53 127.875 73.7333 130.022 71.4C132.215 69.1133 134.129 66.5233 135.762 63.63C137.395 60.7367 138.865 57.7967 140.172 54.81C140.919 53.0367 141.572 51.31 142.132 49.63C142.739 47.95 143.275 46.4333 143.742 45.08C143.275 45.7333 142.669 46.5267 141.922 47.46C141.175 48.3933 140.429 49.3033 139.682 50.19C138.935 51.03 138.282 51.7067 137.722 52.22C136.555 53.34 135.295 54.2967 133.942 55.09C132.635 55.8367 131.282 56.21 129.882 56.21C129.415 56.21 129.019 56.1167 128.692 55.93C128.365 55.7433 128.202 55.3933 128.202 54.88C128.202 54.2267 128.365 53.4567 128.692 52.57C129.065 51.6833 129.462 50.7967 129.882 49.91C130.302 49.0233 130.652 48.3 130.932 47.74C131.492 46.6667 132.029 45.5933 132.542 44.52C133.055 43.4467 133.499 42.5367 133.872 41.79C134.245 41.09 134.432 40.6233 134.432 40.39C134.432 40.0167 134.152 40.0167 133.592 40.39C133.079 40.7633 132.589 41.1367 132.122 41.51C131.095 42.49 130.022 43.6567 128.902 45.01C127.782 46.3167 126.919 47.3667 126.312 48.16C126.172 48.3467 126.055 48.44 125.962 48.44C125.869 48.44 125.822 48.3233 125.822 48.09C125.822 47.7167 125.939 47.3667 126.172 47.04C126.825 46.1067 127.595 45.08 128.482 43.96C129.369 42.84 130.279 41.7667 131.212 40.74C132.099 39.8067 133.009 38.8967 133.942 38.01C134.875 37.1233 136.065 36.68 137.512 36.68C138.492 36.68 138.982 37.0533 138.982 37.8C138.982 38.4533 138.702 39.2 138.142 40.04C137.815 40.5533 137.302 41.4167 136.602 42.63C135.902 43.8433 135.179 45.1733 134.432 46.62C133.732 48.02 133.125 49.3267 132.612 50.54C132.099 51.7533 131.842 52.64 131.842 53.2C131.842 53.8533 132.169 54.18 132.822 54.18C133.335 54.18 133.965 53.9233 134.712 53.41C135.459 52.85 136.229 52.1967 137.022 51.45C138.375 50.1433 139.612 48.6967 140.732 47.11C141.899 45.5233 142.902 44.0067 143.742 42.56C143.882 42.3267 144.115 41.9067 144.442 41.3C144.815 40.6933 145.189 40.11 145.562 39.55C145.982 38.99 146.309 38.6633 146.542 38.57C146.775 38.4767 147.242 38.22 147.942 37.8C148.642 37.38 149.342 37.1 150.042 36.96C150.695 36.82 151.185 36.75 151.512 36.75C152.025 36.75 152.282 36.89 152.282 37.17C152.282 37.5433 152.072 37.73 151.652 37.73C151.139 37.73 150.672 37.87 150.252 38.15C149.832 38.3833 149.505 38.6867 149.272 39.06C148.852 39.6667 148.245 40.7633 147.452 42.35C146.705 43.9367 145.865 45.78 144.932 47.88C144.045 49.9333 143.159 52.0333 142.272 54.18C141.385 56.28 140.569 58.2167 139.822 59.99C138.702 62.65 137.419 65.24 135.972 67.76C134.525 70.3267 132.822 72.6133 130.862 74.62C128.949 76.6733 126.662 78.2833 124.002 79.45C122.415 80.15 120.665 80.5 118.752 80.5ZM151.145 56.14C150.398 56.14 149.721 56 149.115 55.72C148.555 55.3933 148.275 54.7167 148.275 53.69C148.275 52.0567 148.695 50.4233 149.535 48.79C150.375 47.11 151.238 45.64 152.125 44.38C152.918 43.3067 153.805 42.3033 154.785 41.37C155.811 40.39 156.908 39.55 158.075 38.85C158.821 38.3833 159.825 37.8933 161.085 37.38C162.391 36.82 163.488 36.54 164.375 36.54C165.121 36.54 165.775 36.75 166.335 37.17C166.895 37.5433 167.175 38.2433 167.175 39.27C167.175 40.8567 166.755 42.49 165.915 44.17C165.121 45.8033 164.281 47.25 163.395 48.51C162.975 49.07 162.555 49.6067 162.135 50.12C161.715 50.5867 161.248 51.0767 160.735 51.59C162.461 51.59 164.048 51.1 165.495 50.12C166.941 49.0933 168.201 47.8567 169.275 46.41L169.415 46.27C169.555 46.27 169.625 46.41 169.625 46.69C169.625 47.0167 169.531 47.32 169.345 47.6C168.411 48.9067 167.245 50.0733 165.845 51.1C164.445 52.08 162.858 52.57 161.085 52.57C160.898 52.57 160.711 52.57 160.525 52.57C160.338 52.57 160.151 52.5467 159.965 52.5C157.351 54.9267 154.411 56.14 151.145 56.14ZM152.965 54.95C153.618 54.95 154.318 54.7167 155.065 54.25C155.858 53.7833 156.465 53.34 156.885 52.92C157.678 52.1267 158.401 51.2867 159.055 50.4C159.708 49.4667 160.315 48.5333 160.875 47.6C161.528 46.48 162.181 45.15 162.835 43.61C163.488 42.07 163.815 40.6233 163.815 39.27C163.815 38.1967 163.441 37.66 162.695 37.66C162.088 37.66 161.341 37.9167 160.455 38.43C159.615 38.9433 158.985 39.41 158.565 39.83C156.978 41.4633 155.648 43.2367 154.575 45.15C153.968 46.2233 153.315 47.4833 152.615 48.93C151.915 50.3767 151.565 51.7067 151.565 52.92C151.565 53.1067 151.565 53.2933 151.565 53.48C151.611 53.62 151.658 53.7833 151.705 53.97C151.891 54.6233 152.311 54.95 152.965 54.95ZM156.02 80.5C154.247 80.5 152.543 80.08 150.91 79.24C149.23 78.4467 147.993 77.21 147.2 75.53C146.873 74.9233 146.663 74.27 146.57 73.57C146.477 72.9167 146.43 72.2633 146.43 71.61V70.91C146.43 70.5367 146.477 70.1867 146.57 69.86C146.663 69.5333 146.92 69.37 147.34 69.37C147.433 69.37 147.48 69.4167 147.48 69.51C147.48 69.79 147.457 70.07 147.41 70.35C147.363 70.63 147.34 70.9333 147.34 71.26C147.34 73.4067 148.04 75.04 149.44 76.16C150.793 77.28 152.497 77.84 154.55 77.84C155.39 77.84 156.253 77.7467 157.14 77.56C158.027 77.3733 158.843 77.1167 159.59 76.79C162.577 75.53 165.167 73.71 167.36 71.33C169.6 68.95 171.537 66.2667 173.17 63.28C174.85 60.2933 176.32 57.2367 177.58 54.11C178.887 50.9367 180.1 47.95 181.22 45.15C180.24 46.7367 179.167 48.16 178 49.42C176.833 50.6333 175.527 51.8467 174.08 53.06C173.193 53.8067 172.213 54.5067 171.14 55.16C170.113 55.8133 168.993 56.14 167.78 56.14C167.313 56.14 166.987 56 166.8 55.72C166.613 55.3933 166.52 55.02 166.52 54.6V54.11C166.753 52.29 167.337 50.4 168.27 48.44C169.25 46.48 170.417 44.6367 171.77 42.91C173.123 41.1833 174.5 39.7833 175.9 38.71C177.487 37.4967 179.237 36.89 181.15 36.89H189.2C189.433 36.89 189.55 36.9833 189.55 37.17C189.55 37.5433 189.34 37.73 188.92 37.73C188.407 37.73 187.917 37.94 187.45 38.36C186.983 38.78 186.633 39.1767 186.4 39.55C185.933 40.2967 185.327 41.44 184.58 42.98C183.833 44.52 183.017 46.2933 182.13 48.3C181.243 50.26 180.357 52.2667 179.47 54.32C178.583 56.3267 177.767 58.2167 177.02 59.99C175.9 62.65 174.617 65.24 173.17 67.76C171.77 70.3267 170.09 72.6133 168.13 74.62C166.217 76.6733 163.93 78.2833 161.27 79.45C159.683 80.15 157.933 80.5 156.02 80.5ZM170.65 53.76C171.21 53.76 171.98 53.3633 172.96 52.57C173.94 51.73 175.013 50.7033 176.18 49.49C177.347 48.23 178.443 46.9233 179.47 45.57C180.497 44.17 181.337 42.91 181.99 41.79C182.69 40.6233 183.04 39.7367 183.04 39.13C183.04 38.6167 182.877 38.2667 182.55 38.08C182.27 37.8933 181.897 37.8 181.43 37.8C180.683 37.8 179.89 38.08 179.05 38.64C178.21 39.1533 177.533 39.6667 177.02 40.18C176.46 40.6933 175.783 41.51 174.99 42.63C174.243 43.7033 173.473 44.8933 172.68 46.2C171.933 47.5067 171.303 48.7667 170.79 49.98C170.277 51.1933 170.02 52.1733 170.02 52.92C170.02 53.48 170.23 53.76 170.65 53.76ZM196.595 56.21C196.129 56.21 195.732 56.1167 195.405 55.93C195.079 55.7433 194.915 55.3933 194.915 54.88C194.915 54.2267 195.079 53.48 195.405 52.64C195.732 51.8 196.105 50.9833 196.525 50.19C196.945 49.35 197.319 48.6733 197.645 48.16C196.012 49.8867 194.309 51.52 192.535 53.06C191.649 53.8067 190.669 54.5067 189.595 55.16C188.522 55.8133 187.379 56.14 186.165 56.14C185.699 56.14 185.372 56 185.185 55.72C184.999 55.3933 184.905 55.02 184.905 54.6C184.905 54.3667 184.929 54.2033 184.975 54.11C185.209 52.29 185.792 50.4 186.725 48.44C187.659 46.48 188.802 44.6367 190.155 42.91C191.509 41.1833 192.885 39.7833 194.285 38.71C195.872 37.4967 197.622 36.89 199.535 36.89H207.585C207.819 36.89 207.935 36.9833 207.935 37.17C207.935 37.5433 207.725 37.73 207.305 37.73C206.839 37.73 206.372 38.0333 205.905 38.64C205.439 39.2 205.089 39.6667 204.855 40.04C204.529 40.5533 204.015 41.4167 203.315 42.63C202.615 43.8433 201.892 45.1733 201.145 46.62C200.445 48.02 199.839 49.3267 199.325 50.54C198.812 51.7533 198.555 52.64 198.555 53.2C198.555 53.8533 198.882 54.18 199.535 54.18C200.235 54.18 201.029 53.8533 201.915 53.2C202.802 52.5467 203.689 51.7533 204.575 50.82C205.509 49.84 206.349 48.8833 207.095 47.95C207.889 46.97 208.519 46.2 208.985 45.64C209.265 45.92 209.242 46.3167 208.915 46.83C208.635 47.2967 208.379 47.67 208.145 47.95C207.212 49.1633 206.139 50.4233 204.925 51.73C203.712 52.99 202.382 54.0633 200.935 54.95C199.535 55.79 198.089 56.21 196.595 56.21ZM189.035 53.76C189.595 53.76 190.365 53.3633 191.345 52.57C192.372 51.73 193.469 50.7033 194.635 49.49C195.802 48.23 196.899 46.9233 197.925 45.57C198.952 44.17 199.792 42.91 200.445 41.79C201.145 40.6233 201.495 39.7367 201.495 39.13C201.495 38.6167 201.332 38.2667 201.005 38.08C200.725 37.8933 200.352 37.8 199.885 37.8C199.139 37.8 198.322 38.08 197.435 38.64C196.595 39.1533 195.919 39.6667 195.405 40.18C194.845 40.6933 194.169 41.51 193.375 42.63C192.629 43.7033 191.882 44.8933 191.135 46.2C190.389 47.5067 189.759 48.7667 189.245 49.98C188.732 51.1933 188.475 52.1733 188.475 52.92C188.475 53.48 188.662 53.76 189.035 53.76Z" fill="url(#paint14_linear_415_20)"/>
<defs>
<linearGradient id="paint0_linear_415_20" x1="7.51998" y1="82.6606" x2="7.57664" y2="99.1216" gradientUnits="userSpaceOnUse">
<stop offset="0.347758" stop-color="#DF25AC"/>
<stop offset="1" stop-color="#9825DF" stop-opacity="0.93"/>
</linearGradient>
<linearGradient id="paint1_linear_415_20" x1="26.5394" y1="83.0078" x2="26.5786" y2="98.6278" gradientUnits="userSpaceOnUse">
<stop offset="0.347758" stop-color="#DF25AC"/>
<stop offset="1" stop-color="#9825DF" stop-opacity="0.93"/>
</linearGradient>
<linearGradient id="paint2_linear_415_20" x1="42.011" y1="83.0078" x2="42.0564" y2="98.6278" gradientUnits="userSpaceOnUse">
<stop offset="0.347758" stop-color="#DF25AC"/>
<stop offset="1" stop-color="#9825DF" stop-opacity="0.93"/>
</linearGradient>
<linearGradient id="paint3_linear_415_20" x1="60.3356" y1="83.0078" x2="60.3868" y2="98.6277" gradientUnits="userSpaceOnUse">
<stop offset="0.347758" stop-color="#DF25AC"/>
<stop offset="1" stop-color="#9825DF" stop-opacity="0.93"/>
</linearGradient>
<linearGradient id="paint4_linear_415_20" x1="78.3333" y1="83.0078" x2="78.3725" y2="98.6278" gradientUnits="userSpaceOnUse">
<stop offset="0.347758" stop-color="#DF25AC"/>
<stop offset="1" stop-color="#9825DF" stop-opacity="0.93"/>
</linearGradient>
<linearGradient id="paint5_linear_415_20" x1="97.4483" y1="83.0078" x2="97.4947" y2="98.6278" gradientUnits="userSpaceOnUse">
<stop offset="0.347758" stop-color="#DF25AC"/>
<stop offset="1" stop-color="#9825DF" stop-opacity="0.93"/>
</linearGradient>
<linearGradient id="paint6_linear_415_20" x1="116.246" y1="82.6414" x2="116.299" y2="99.1024" gradientUnits="userSpaceOnUse">
<stop offset="0.347758" stop-color="#DF25AC"/>
<stop offset="1" stop-color="#9825DF" stop-opacity="0.93"/>
</linearGradient>
<linearGradient id="paint7_linear_415_20" x1="129.74" y1="83.0078" x2="129.929" y2="98.6256" gradientUnits="userSpaceOnUse">
<stop offset="0.347758" stop-color="#DF25AC"/>
<stop offset="1" stop-color="#9825DF" stop-opacity="0.93"/>
</linearGradient>
<linearGradient id="paint8_linear_415_20" x1="155.814" y1="83.0078" x2="155.854" y2="98.6278" gradientUnits="userSpaceOnUse">
<stop offset="0.347758" stop-color="#DF25AC"/>
<stop offset="1" stop-color="#9825DF" stop-opacity="0.93"/>
</linearGradient>
<linearGradient id="paint9_linear_415_20" x1="173.04" y1="82.6799" x2="173.088" y2="99.141" gradientUnits="userSpaceOnUse">
<stop offset="0.347758" stop-color="#DF25AC"/>
<stop offset="1" stop-color="#9825DF" stop-opacity="0.93"/>
</linearGradient>
<linearGradient id="paint10_linear_415_20" x1="192.001" y1="82.6414" x2="192.054" y2="99.1024" gradientUnits="userSpaceOnUse">
<stop offset="0.347758" stop-color="#DF25AC"/>
<stop offset="1" stop-color="#9825DF" stop-opacity="0.93"/>
</linearGradient>
<linearGradient id="paint11_linear_415_20" x1="209.873" y1="83.0078" x2="209.913" y2="98.6278" gradientUnits="userSpaceOnUse">
<stop offset="0.347758" stop-color="#DF25AC"/>
<stop offset="1" stop-color="#9825DF" stop-opacity="0.93"/>
</linearGradient>
<linearGradient id="paint12_linear_415_20" x1="118.359" y1="64.1331" x2="118.359" y2="66.7668" gradientUnits="userSpaceOnUse">
<stop offset="0.347758" stop-color="#DF25AC"/>
<stop offset="1" stop-color="#9825DF" stop-opacity="0.93"/>
</linearGradient>
<linearGradient id="paint13_linear_415_20" x1="46.5" y1="14" x2="46.6099" y2="71.0485" gradientUnits="userSpaceOnUse">
<stop offset="0.347758" stop-color="#DF25AC"/>
<stop offset="1" stop-color="#9825DF" stop-opacity="0.93"/>
</linearGradient>
<linearGradient id="paint14_linear_415_20" x1="153.5" y1="-7.98208e-09" x2="153.661" y2="92.2215" gradientUnits="userSpaceOnUse">
<stop offset="0.347758" stop-color="#DF25AC"/>
<stop offset="1" stop-color="#9825DF" stop-opacity="0.93"/>
</linearGradient>
</defs>
</svg>
